<?xml version="1.0" encoding="UTF-8" standalone="no"?><svg xmlns="http://www.w3.org/2000/svg" xmlns:xlink="http://www.w3.org/1999/xlink" data-name="Layer 2" fill="#ffffff" height="60.8" preserveAspectRatio="xMidYMid meet" version="1" viewBox="-0.0 0.0 69.2 60.8" width="69.2" zoomAndPan="magnify"><g><g id="change1_1"><path d="m38.71,59.84c-.07-.01-.13-.02-.13-.02,0,0,.05.01.13.02Z"/><path d="m69.23,29.02l-.27-.05c-.1-.02-.2-.03-.3-.05.06-.34.14-.75.14-.75-.24-.03-.49-.04-.73-.07l.56-4.37.15-1.13s-1.16-.07-1.16-.07c-6.27-.23-13.43-.47-19.71-.21l-4.1.12,1.95-18.63.05-.5s-.51,0-.51,0c-1.11,0-2.27,0-3.43.02-.02-.92-.05-1.78-.07-2.53l-.02-.8s-.78.09-.78.09c-2.4.33-4.8.67-7.2,1.03l-6.88.8-.46.05s0,.15.02.28c-.54.09-1.09.17-1.63.25l-.42.08s.04.41.04.41c.04.44.08.88.12,1.32h-.03s-.46.08-.46.08l.05.45c.75,6.29,1.47,12.79,2.12,19.12-6.97.43-13.94,1.02-20.87,1.91-.34.03-.69.04-1.03.07l-.75.06s0,.07.01.1c-.47.06-.94.11-1.41.18l-.74.1c.08.42.16.85.24,1.27-.33.06-.67.11-1,.17l-.72.13c.16.7.33,1.4.48,2.1,0,0-.05,0-.05,0,.32,1.33.64,2.66.96,3.98.54,2.35,1.06,4.7,1.61,7.04,8.04-1.32,16.09-2.36,24.2-3.14.45,4.12,1.01,9.23,1.51,13.97l-.22,6.41s-.03.86-.03.86c3,.45,6.9,1.07,9.92,1.6,0,0,.18-.98.18-.98,0,0,0,0,0,0,0,0,0,0,0,0l.04-.23,1.05.07c-.02.23-.03.36-.03.36.02,0-.64-.12-.93-.17.28.05.94.18.94.17,0,0,.01-.13.04-.36l.79.05c0-.05,0-.11.01-.17.63.05,1.36.1,1.36.1h.12c-.04-3.84-.04-7.68-.03-11.53l.11-10.39c1.42.09,2.84.18,4.26.27,6.39.87,13.4,1.83,19.71,3.23l.19.04.05-.19.22-.89s.06,0,.1.01c0-.03.1-.59.26-1.45l2.33-9.45.07-.27Zm-28.93,27.38s-.26-.02-.27-.02c.07-.66.15-1.39.23-2.16.02.75.03,1.48.05,2.18Zm-.6,2.87s-.69-.03-1.01-.05l.07-.39-4.58-.72c-.58-.09-1.15-.18-1.73-.27,0-.14,0-.29,0-.43l3.75-.03c.74.08,1.48.15,2.21.24l.05-1.18,1.52.08c-.11,1.19-.21,2.14-.26,2.75,0,0-.01,0-.01,0ZM3.96,37.37c-.15-.55-.3-1.1-.46-1.65.4-.05.8-.09,1.21-.13l.13.7s.02,0,.04,0l.04.34s.05.4.07.57c-.34.06-.69.11-1.03.18Zm44.68-11.36c4.48-.09,8.95-.09,13.43.02-.02.16-.05.54-.08.79-4.44-.38-8.9-.65-13.35-.81Zm-19.31,8.85h.06s.02.76.02.76c-.02,0-.04,0-.06,0,0-.25-.02-.51-.03-.76ZM38.28,3.39c-.3,0-.6.01-.9.02,0-.02,0-.04,0-.05l.91-.1v.14Zm-7.83,54.04h1.17c0,.09.01.19.02.29-.4-.06-.8-.12-1.19-.18v-.11Zm33.53-21.59c.31.03.61.06.92.09h.11c-.02.14-.07.58-.08.66-.36-.03-.72-.04-1.08-.07l.12-.68Zm-39.21-10.75c.53-.06,1.07-.12,1.6-.18,0,0,0,.02,0,.03-.53.05-1.07.1-1.6.15Zm13.69,31.18l.82-20.95c.2,0,.4,0,.6,0,.08,5.64.24,12.61.36,18.41-.09.96-.18,1.86-.26,2.66-.11,0-1-.07-1.53-.11Zm2.55-19.96c0-.34.01-.67.02-1,1.78,0,3.57,0,5.35.02,3.19.2,6.37.48,9.55.8-4.8-.14-9.6-.13-14.39.05l-.52.02s0,.07,0,.1c0,0,0,0,0,0ZM27.71,3.05c.02.21.04.53.04.53v.19s-.24.04-.24.04c0-.24-.02-.49-.02-.73.08,0,.15-.02.23-.03Zm.13,1.81l1.07,14.9.16,4.92c-.69.06-1.38.13-2.07.2,0-.01,0-.02,0-.04.03,0,.05,0,.08,0,0-.1-.02-.19-.02-.29.44-.03.88-.07,1.32-.09-.34-6.43-.61-13.06-.82-19.55l.3-.04Zm-.13,19.01c-.24.01-.48.03-.72.05-.54-6.25-1.03-12.5-1.47-18.75l1.13-.15c.4,6.25.77,12.65,1.06,18.85ZM2.68,32.71c-.13-.51-.27-1.03-.4-1.54.03,0,.06-.01.1-.02.1.52.2,1.04.31,1.57Zm3.39,6.07s0,.03,0,.05c-.58.09-1.16.18-1.74.27,0-.01,0-.03,0-.04.58-.1,1.16-.19,1.74-.28Zm33.95,17.76l.36.02c0,1-.02,1.93-.02,2.77-.26-.02-.61-.04-.62-.04.06-.61.16-1.56.29-2.75Zm4.78-52.29l-1.75,18.23h-.26c.18-5.98.38-13.42.48-17.92l-.77.08-.59.06c0-.13,0-.26,0-.39.97-.02,1.94-.03,2.9-.05Zm-19.4-.9c.38-.05.76-.1,1.14-.15.02.25.03.51.05.77l-1.13.19c-.02-.27-.04-.54-.06-.81ZM2.11,29.75c-.06.01-.13.02-.19.03-.06-.24-.12-.49-.19-.73.08-.02.16-.03.24-.05.05.25.09.5.14.74Zm38.23,29.79l-.41-.06c.08,0,.23.02.41.03,0,0,0,.02,0,.03Zm1.05-13.36c.16,4.64.31,9.41.35,13.21-.13,0-.66-.04-1.24-.07.24-3.32.58-8.37.89-13.13Zm24.52-5.42c-4.46-.83-9.05-1.66-13.62-2.31.4.04.79.06,1.19.1,4.21.4,8.4.95,12.59,1.55-.02.09-.15.64-.16.66Zm2.65-11.34s.03,0,.04,0c0,.03-.11.48-.13.56.04-.25.08-.44.09-.56Z"/></g></g></svg>