<?xml version="1.0" encoding="UTF-8" standalone="no"?><svg xmlns="http://www.w3.org/2000/svg" xmlns:xlink="http://www.w3.org/1999/xlink" fill="#ffffff" height="1240.3" preserveAspectRatio="xMidYMid meet" version="1" viewBox="0.0 0.0 1123.5 1240.3" width="1123.5" zoomAndPan="magnify"><g><g><g id="change1_2"><path d="M40 0L20 1240.32 0 0 40 0 40 0z"/><path d="M20.2 0.02L1123.51 20.02 20.2 40.02 20.2 0.02 20.2 0.02z"/></g><g id="change1_3"><path d="M107.41 63.61L87.41 1101.57 67.41 63.61 107.41 63.61 107.41 63.61z"/><path d="M78.75 63.39L1002.05 83.39 78.75 103.39 78.75 63.39 78.75 63.39z"/></g><g id="change1_1"><path d="M175.46 124.01L155.46 796.53 135.46 124.01 175.46 124.01 175.46 124.01z"/><path d="M155.46 123.7L753.69 143.7 155.46 163.7 155.46 123.7 155.46 123.7z"/></g></g></g></svg>