<?xml version="1.0" encoding="UTF-8" standalone="no"?><svg xmlns="http://www.w3.org/2000/svg" xmlns:xlink="http://www.w3.org/1999/xlink" fill="#000000" height="24" preserveAspectRatio="xMidYMid meet" version="1" viewBox="0.0 0.0 27.0 24.0" width="27" zoomAndPan="magnify"><g fill="#ffffff" id="change1_1"><path d="M 20.007812 7 L 16.488281 7 L 12.855469 12 L 8.796875 12 L 5.464844 17 L 0 17 L 0 18 L 6 18 L 9.332031 13 L 13.363281 13 L 17 8 L 20.5 8 L 25.296875 1.765625 L 26.796875 2.921875 L 26.023438 0 L 23 0 L 24.503906 1.15625 L 20.007812 7" fill="inherit"/><path d="M 16 15 L 19 15 L 19 23 L 16 23 Z M 15 14 L 15 24 L 20 24 L 20 14 L 15 14" fill="inherit"/><path d="M 23 12 L 26 12 L 26 23 L 23 23 Z M 22 11 L 22 24 L 27 24 L 27 11 L 22 11" fill="inherit"/><path d="M 9 18 L 12 18 L 12 23 L 9 23 Z M 8 17 L 8 24 L 13 24 L 13 17 L 8 17" fill="inherit"/><path d="M 2 20 L 5 20 L 5 23 L 2 23 Z M 1 19 L 1 24 L 6 24 L 6 19 L 1 19" fill="inherit"/></g></svg>